<?xml version="1.0" encoding="UTF-8" standalone="no"?><!DOCTYPE svg PUBLIC "-//W3C//DTD SVG 1.1//EN" "http://www.w3.org/Graphics/SVG/1.1/DTD/svg11.dtd"><svg width="100%" height="100%" viewBox="0 0 338 850" version="1.1" xmlns="http://www.w3.org/2000/svg" xmlns:xlink="http://www.w3.org/1999/xlink" xml:space="preserve" xmlns:serif="http://www.serif.com/" style="fill-rule:evenodd;clip-rule:evenodd;stroke-linejoin:round;stroke-miterlimit:2;"><path d="M294.361,0l0,144.88l-31.509,118.372l74.649,548.216c0,0 -112.5,38.531 -168.75,38.531c-56.25,0 -168.75,-38.531 -168.75,-38.531l74.649,-548.216l-32.002,-118.372l0,-144.88l30.268,0l0,42.069l25.094,0l0,-42.069l30.268,0l0,42.069l25.094,0l0,-42.069l30.268,0l0,42.069l25.094,0l0,-42.069l30.268,0l0,42.069l25.094,0l0,-42.069l30.268,0Zm-172.252,259.511l93.283,0l0,-102.941l-0.247,0c-2.419,-23.477 -22.282,-31.16 -46.394,-31.16c-24.112,0 -43.975,7.683 -46.394,31.16l-0.247,0l0,102.941Z" style="fill:#d7d7d7;"/></svg>